<svg width="48" height="48" viewBox="0 0 48 48" fill="none" xmlns="http://www.w3.org/2000/svg">
<g filter="url(#filter0_d)">
<path fill-rule="evenodd" clip-rule="evenodd" d="M12.0312 31.9688C6.65625 26.5938 6.65625 13.4062 12.0312 8.03125C17.4062 2.65625 30.5938 2.65625 35.9688 8.03125C41.3438 13.4062 41.3438 26.5938 35.9688 31.9688C30.5938 37.3438 17.4062 37.3438 12.0312 31.9688Z" fill="#43D0FF"/>
<path fill-rule="evenodd" clip-rule="evenodd" d="M32.5296 13.665C31.8565 14.0681 31.1111 14.3613 30.315 14.5226C29.6782 13.8336 28.7735 13.4084 27.7676 13.4084C25.8425 13.4084 24.2793 14.9917 24.2793 16.9414C24.2793 17.22 24.3082 17.4912 24.3734 17.7477C21.4713 17.6011 18.9021 16.1938 17.1797 14.0535C16.8829 14.5739 16.7092 15.1823 16.7092 15.8273C16.7092 17.0514 17.3244 18.1362 18.2652 18.7666C17.6935 18.7519 17.1579 18.5906 16.6875 18.3268V18.3708C16.6875 20.0859 17.8889 21.5079 19.4883 21.8378C19.1988 21.9184 18.8876 21.9624 18.5692 21.9624C18.3448 21.9624 18.1277 21.9404 17.9106 21.8964C18.3521 23.3037 19.6403 24.3226 21.1673 24.3519C19.9732 25.2975 18.4679 25.8619 16.8323 25.8619C16.55 25.8619 16.275 25.8472 16 25.8105C17.527 26.8221 19.3653 27.4084 21.3338 27.4084C27.7531 27.4084 31.2631 22.021 31.2631 17.3519C31.2631 17.198 31.2631 17.0441 31.2559 16.8975C31.9361 16.399 32.5296 15.776 33 15.065C32.3776 15.3435 31.7046 15.5341 30.9953 15.6221C31.719 15.1823 32.2691 14.4933 32.5296 13.665Z" fill="white"/>
</g>
<defs>
<filter id="filter0_d" x="0" y="0" width="48" height="48" filterUnits="userSpaceOnUse" color-interpolation-filters="sRGB">
<feFlood flood-opacity="0" result="BackgroundImageFix"/>
<feColorMatrix in="SourceAlpha" type="matrix" values="0 0 0 0 0 0 0 0 0 0 0 0 0 0 0 0 0 0 127 0"/>
<feOffset dy="4"/>
<feGaussianBlur stdDeviation="4"/>
<feColorMatrix type="matrix" values="0 0 0 0 0 0 0 0 0 0 0 0 0 0 0 0 0 0 0.25 0"/>
<feBlend mode="normal" in2="BackgroundImageFix" result="effect1_dropShadow"/>
<feBlend mode="normal" in="SourceGraphic" in2="effect1_dropShadow" result="shape"/>
</filter>
</defs>
</svg>
