<svg width="14" height="14" viewBox="0 0 14 14" fill="none" xmlns="http://www.w3.org/2000/svg">
<path fill-rule="evenodd" clip-rule="evenodd" d="M3.6 1.8C3.6 2.79411 2.79411 3.6 1.8 3.6C0.805885 3.6 0 2.79411 0 1.8C0 0.805887 0.805885 0 1.8 0C2.79411 0 3.6 0.805887 3.6 1.8ZM7.1 0.799999C6.49249 0.799999 6 1.29249 6 1.9C6 2.50751 6.49249 3 7.1 3H12.9C13.5075 3 14 2.50751 14 1.9C14 1.29249 13.5075 0.799999 12.9 0.799999H7.1ZM7.1 10.8C6.49249 10.8 6 11.2925 6 11.9C6 12.5075 6.49249 13 7.1 13H12.9C13.5075 13 14 12.5075 14 11.9C14 11.2925 13.5075 10.8 12.9 10.8H7.1ZM0 6.9C0 6.29249 0.492485 5.8 1.1 5.8H6.9C7.50751 5.8 8 6.29249 8 6.9C8 7.50751 7.50751 8 6.9 8H1.1C0.492485 8 0 7.50751 0 6.9ZM1.8 13.6C2.79411 13.6 3.6 12.7941 3.6 11.8C3.6 10.8059 2.79411 10 1.8 10C0.805885 10 0 10.8059 0 11.8C0 12.7941 0.805885 13.6 1.8 13.6ZM13.6 6.8C13.6 7.79411 12.7941 8.6 11.8 8.6C10.8059 8.6 10 7.79411 10 6.8C10 5.80589 10.8059 5 11.8 5C12.7941 5 13.6 5.80589 13.6 6.8Z" fill="#8E8E94"/>
</svg>
