<svg width="17" height="18" viewBox="0 0 17 18" fill="none" xmlns="http://www.w3.org/2000/svg">
<path fill-rule="evenodd" clip-rule="evenodd" d="M8.5 0.500729C13.1948 0.500729 17 4.40212 17 9.21565C17 13.0653 14.5666 16.3307 11.192 17.4847C10.7607 17.5699 10.6077 17.2982 10.6077 17.0658C10.6077 16.7787 10.6179 15.8404 10.6179 14.6747C10.6179 13.8616 10.3461 13.3312 10.0409 13.0609C11.9337 12.8453 13.9226 12.108 13.9226 8.76103C13.9226 7.80882 13.5933 7.03219 13.0476 6.42239C13.1358 6.20164 13.4272 5.31499 12.9638 4.11507C12.9638 4.11507 12.252 3.88193 10.6296 5.00827C9.94982 4.81521 9.22272 4.71831 8.5 4.71539C7.77728 4.71831 7.05018 4.81521 6.37263 5.00827C4.74796 3.8812 4.03398 4.11507 4.03398 4.11507C3.57281 5.31499 3.86423 6.20164 3.95166 6.42166C3.40889 7.03219 3.07667 7.80882 3.07667 8.76103C3.07667 12.1 5.06124 12.8482 6.94892 13.0682C6.70558 13.2853 6.48556 13.67 6.40906 14.2332C5.92457 14.4561 4.69405 14.8408 3.93563 13.509C3.93563 13.509 3.48611 12.6712 2.63298 12.6107C2.63298 12.6107 1.80389 12.5998 2.5747 13.1404C2.5747 13.1404 3.13131 13.4077 3.51817 14.4153C3.51817 14.4153 4.01723 15.9708 6.38137 15.4433C6.38575 16.1719 6.39376 16.8589 6.39376 17.0658C6.39376 17.2967 6.23712 17.5656 5.81311 17.4854C2.43554 16.3336 0 13.066 0 9.21638C0 4.40139 3.80668 0.5 8.5 0.5" fill="#8E8E94"/>
</svg>
